<?xml version="1.0" encoding="utf-8"?>
<!-- Generator: Adobe Illustrator 19.0.0, SVG Export Plug-In . SVG Version: 6.00 Build 0)  -->
<svg version="1.1" id="Layer_1" xmlns="http://www.w3.org/2000/svg" xmlns:xlink="http://www.w3.org/1999/xlink" x="0px" y="0px"
	 viewBox="0 0 512 512" style="enable-background:new 0 0 512 512;" xml:space="preserve">
<style type="text/css">
	.st0{fill:#E6981E;stroke:#FFFFFF;stroke-width:20;stroke-miterlimit:10;}
	.st1{fill:#FFFFFF;}
</style>
<circle class="st0" cx="256" cy="256" r="230.5"/>
<g id="XMLID_1_">
	<g id="XMLID_69_">
		<path id="XMLID_73_" class="st1" d="M38.2,271.1c28.1,0,56.1,0,84.3,0c4.1,0,8.1,0,12.2,0c6.6,0,13.1-5.9,12.8-12.8
			s-5.6-12.8-12.8-12.8c-28.1,0-56.1,0-84.3,0c-4.1,0-8.1,0-12.2,0c-6.6,0-13.1,5.9-12.8,12.8C25.8,265.3,31.1,271.1,38.2,271.1
			L38.2,271.1z"/>
	</g>
</g>
<g id="XMLID_11_">
	<g id="XMLID_63_">
		<path id="XMLID_67_" class="st1" d="M385.8,271.1c25.7,0,51.3,0,77,0c3.7,0,7.3,0,11,0c6.6,0,13.1-5.9,12.8-12.8
			c-0.3-6.9-5.6-12.8-12.8-12.8c-25.7,0-51.3,0-77,0c-3.7,0-7.3,0-11,0c-6.6,0-13.1,5.9-12.8,12.8
			C373.4,265.3,378.6,271.1,385.8,271.1L385.8,271.1z"/>
	</g>
</g>
<g id="XMLID_2_">
	<g id="XMLID_57_">
		<path id="XMLID_61_" class="st1" d="M145.6,264.8c11.6-22.9,23.1-45.8,34.7-68.7c1.6-3.3,3.3-6.5,4.9-9.9
			c3.1-6.1,1.6-13.9-4.6-17.4c-5.7-3.3-14.4-1.6-17.4,4.6c-11.6,22.9-23.1,45.8-34.7,68.7c-1.6,3.3-3.3,6.5-4.9,9.9
			c-3.1,6.1-1.6,13.9,4.6,17.4C133.9,272.7,142.5,271,145.6,264.8L145.6,264.8z"/>
	</g>
</g>
<g id="XMLID_3_">
	<g id="XMLID_51_">
		<path id="XMLID_55_" class="st1" d="M162,183.2c4.3,23.2,8.4,46.4,12.7,69.6c6.7,36.9,13.4,73.9,20.2,110.8
			c1.5,8.5,3.1,16.9,4.6,25.4c1.3,6.8,9.4,10.6,15.7,8.9c7.1-2,10.1-8.9,8.9-15.7c-4.3-23.2-8.4-46.4-12.7-69.6
			c-6.7-36.9-13.4-73.9-20.2-110.8c-1.5-8.5-3.1-16.9-4.6-25.4c-1.3-6.8-9.4-10.6-15.7-8.9C163.8,169.5,160.8,176.4,162,183.2
			L162,183.2z"/>
	</g>
</g>
<g id="XMLID_4_">
	<g id="XMLID_45_">
		<path id="XMLID_49_" class="st1" d="M224.5,385.7c1.3-10,2.6-19.8,3.9-29.8c3.1-23.8,6.2-47.6,9.4-71.5
			c3.7-28.8,7.6-57.7,11.3-86.5c3.2-24.9,6.5-49.8,9.8-74.8c1.6-12.1,4-24.3,4.8-36.4c0-0.2,0.1-0.3,0.1-0.5
			c0.9-6.6-6.5-13-12.8-12.8c-7.7,0.3-11.8,5.6-12.8,12.8c-1.3,10-2.6,19.8-3.9,29.8c-3.1,23.8-6.2,47.6-9.4,71.5
			c-3.7,28.8-7.6,57.7-11.3,86.5c-3.2,24.9-6.5,49.8-9.8,74.8c-1.6,12.1-4,24.3-4.8,36.4c0,0.2-0.1,0.3-0.1,0.5
			c-0.9,6.6,6.5,13,12.8,12.8C219.4,398.1,223.6,392.8,224.5,385.7L224.5,385.7z"/>
	</g>
</g>
<g id="XMLID_5_">
	<g id="XMLID_39_">
		<path id="XMLID_43_" class="st1" d="M238.5,90c5.3,25.3,10.6,50.5,15.9,75.8c8.3,40,16.8,79.9,25.1,119.8c2,9.2,3.8,18.4,5.8,27.6
			c1.4,6.8,9.4,10.8,15.7,9.1c7-2,10.4-9.1,8.9-16c-5.3-25.3-10.6-50.5-15.9-75.8c-8.3-40-16.8-79.9-25.1-119.8
			c-2-9.2-3.8-18.4-5.8-27.6c-1.4-6.8-9.4-10.8-15.7-9.1C240.5,75.9,237.1,83,238.5,90L238.5,90z"/>
	</g>
</g>
<g id="XMLID_6_">
	<g id="XMLID_33_">
		<path id="XMLID_37_" class="st1" d="M310,313.4c8.9-24.1,17.9-48.1,26.8-72.2c1.3-3.4,2.6-6.9,3.8-10.3c2.3-6.3-2.6-14.3-8.9-15.7
			c-7.2-1.6-13.2,2.2-15.7,8.9c-8.9,24.1-17.9,48.1-26.8,72.2c-1.3,3.4-2.6,6.9-3.8,10.3c-2.3,6.3,2.6,14.3,8.9,15.7
			C301.5,323.9,307.4,320.1,310,313.4L310,313.4z"/>
	</g>
</g>
<g id="XMLID_7_">
	<g id="XMLID_27_">
		<path id="XMLID_31_" class="st1" d="M315.9,230.9c9.4,25.5,18.9,51.1,28.2,76.6c1.4,3.7,2.7,7.3,4.1,11c2.4,6.5,8.7,10.9,15.7,8.9
			c6.2-1.7,11.3-9.2,8.9-15.7c-9.4-25.5-18.9-51.1-28.2-76.6c-1.4-3.7-2.7-7.3-4.1-11c-2.4-6.5-8.7-10.9-15.7-8.9
			C318.7,216.8,313.6,224.3,315.9,230.9L315.9,230.9z"/>
	</g>
</g>
<g id="XMLID_8_">
	<g id="XMLID_21_">
		<path id="XMLID_25_" class="st1" d="M371.7,321.6c8.4-18.9,16.8-37.8,25.2-56.7c2.8-6.3,1.9-13.7-4.6-17.4
			c-5.4-3.1-14.6-1.8-17.4,4.6c-8.4,18.9-16.8,37.8-25.2,56.7c-2.8,6.3-1.9,13.7,4.6,17.4C359.6,329.3,368.8,327.8,371.7,321.6
			L371.7,321.6z"/>
	</g>
</g>
</svg>
